HIERARCHY
ROOT Hips
{
	OFFSET 0.000000 0.000000 0.000000
	CHANNELS 6 Xposition Yposition Zposition Zrotation Yrotation Xrotation 
	JOINT LHipJoint
	{
		OFFSET 0.000000 0.000000 0.000000
		CHANNELS 3 Zrotation Yrotation Xrotation
		JOINT LeftUpLeg
		{
			OFFSET 1.363060 -1.794630 0.839290
			CHANNELS 3 Zrotation Yrotation Xrotation
			JOINT LeftLeg
			{
				OFFSET 2.448110 -6.726130 0.000000
				CHANNELS 3 Zrotation Yrotation Xrotation
				JOINT LeftFoot
				{
					OFFSET 2.562200 -7.039590 0.000000
					CHANNELS 3 Zrotation Yrotation Xrotation
					JOINT LeftToeBase
					{
						OFFSET 0.157640 -0.433110 2.322550
						CHANNELS 3 Zrotation Yrotation Xrotation
						End Site
						{
							OFFSET 0.000000 0.000000 0.000000
						}
					}
				}
			}
		}
	}
	JOINT RHipJoint
	{
		OFFSET 0.000000 0.000000 0.000000
		CHANNELS 3 Zrotation Yrotation Xrotation
		JOINT RightUpLeg
		{
			OFFSET -1.305520 -1.794630 0.839290
			CHANNELS 3 Zrotation Yrotation Xrotation
			JOINT RightLeg
			{
				OFFSET -2.542530 -6.985550 0.000000
				CHANNELS 3 Zrotation Yrotation Xrotation
				JOINT RightFoot
				{
					OFFSET -2.568260 -7.056230 0.000000
					CHANNELS 3 Zrotation Yrotation Xrotation
					JOINT RightToeBase
					{
						OFFSET -0.164730 -0.452590 2.363150
						CHANNELS 3 Zrotation Yrotation Xrotation
						End Site
						{
							OFFSET 0.000000 0.000000 0.000000
						}
					}
				}
			}
		}
	}
	JOINT LowerBack
	{
		OFFSET 0.000000 0.000000 0.000000
		CHANNELS 3 Zrotation Yrotation Xrotation
		JOINT Spine
		{
			OFFSET 0.028270 2.035590 -0.193380
			CHANNELS 3 Zrotation Yrotation Xrotation
			JOINT Spine1
			{
				OFFSET 0.056720 2.048850 -0.042750
				CHANNELS 3 Zrotation Yrotation Xrotation
				JOINT Neck
				{
					OFFSET 0.000000 0.000000 0.000000
					CHANNELS 3 Zrotation Yrotation Xrotation
					JOINT Neck1
					{
						OFFSET -0.054170 1.746240 0.172020
						CHANNELS 3 Zrotation Yrotation Xrotation
						JOINT Head
						{
							OFFSET 0.104070 1.761360 -0.123970
							CHANNELS 3 Zrotation Yrotation Xrotation
							End Site
							{
								OFFSET 0.000000 0.000000 0.000000
							}
						}
					}
				}
				JOINT LeftShoulder
				{
					OFFSET 0.000000 0.000000 0.000000
					CHANNELS 3 Zrotation Yrotation Xrotation
					JOINT LeftArm
					{
						OFFSET 3.362410 1.200890 -0.311210
						CHANNELS 3 Zrotation Yrotation Xrotation
						JOINT LeftForeArm
						{
							OFFSET 4.983000 -0.000000 -0.000000
							CHANNELS 3 Zrotation Yrotation Xrotation
							JOINT LeftHand
							{
								OFFSET 3.483560 -0.000000 -0.000000
								CHANNELS 3 Zrotation Yrotation Xrotation
								JOINT LeftFingerBase
								{
									OFFSET 0.000000 0.000000 0.000000
									CHANNELS 3 Zrotation Yrotation Xrotation
									JOINT LeftHandIndex1
									{
										OFFSET 0.715260 -0.000000 -0.000000
										CHANNELS 3 Zrotation Yrotation Xrotation
										End Site
										{
											OFFSET 0.000000 0.000000 0.000000
										}
									}
								}
								JOINT LThumb
								{
									OFFSET 0.000000 0.000000 0.000000
									CHANNELS 3 Zrotation Yrotation Xrotation
									End Site
									{
										OFFSET 0.000000 0.000000 0.000000
									}
								}
							}
						}
					}
				}
				JOINT RightShoulder
				{
					OFFSET 0.000000 0.000000 0.000000
					CHANNELS 3 Zrotation Yrotation Xrotation
					JOINT RightArm
					{
						OFFSET -3.136600 1.374050 -0.404650
						CHANNELS 3 Zrotation Yrotation Xrotation
						JOINT RightForeArm
						{
							OFFSET -5.241900 -0.000000 -0.000000
							CHANNELS 3 Zrotation Yrotation Xrotation
							JOINT RightHand
							{
								OFFSET -3.444170 -0.000000 -0.000000
								CHANNELS 3 Zrotation Yrotation Xrotation
								JOINT RightFingerBase
								{
									OFFSET 0.000000 0.000000 0.000000
									CHANNELS 3 Zrotation Yrotation Xrotation
									JOINT RightHandIndex1
									{
										OFFSET -0.622530 -0.000000 -0.000000
										CHANNELS 3 Zrotation Yrotation Xrotation
										End Site
										{
											OFFSET 0.000000 0.000000 0.000000
										}
									}
								}
								JOINT RThumb
								{
									OFFSET 0.000000 0.000000 0.000000
									CHANNELS 3 Zrotation Yrotation Xrotation
									End Site
									{
										OFFSET 0.000000 0.000000 0.000000
									}
								}
							}
						}
					}
				}
			}
		}
	}
}
MOTION
Frames: 10
Frame Time: 0.008333
0.826887 15.326057 -2.265001 -2.949295 24.403773 -5.199855 15.343284 23.356810 -7.106464 -28.421692 -5.190491 -6.802651 -0.147701 13.785523 29.480865 -1.007664 4.659019 -11.809119 0.000000 0.000000 0.000000 -17.811831 -16.271060 -0.838343 12.624062 -7.766129 10.009285 34.950396 -21.940258 15.960834 4.382789 -6.902359 -23.299333 0.000000 0.000000 0.000000 -0.579940 0.863180 9.462266 0.183951 2.245184 -3.287071 -5.001181 0.694779 -9.052074 -2.557305 1.211433 1.184366 0.000000 0.000000 0.000000 0.000000 0.000000 0.000000 6.725574 -6.438872 7.857167 -47.238405 -29.329685 16.493429 123.017756 -50.828062 -0.000000 0.000000 0.000000 0.000000 0.000000 0.000000 0.000000 0.000000 0.000000 0.000000 0.000000 0.000000 0.000000 -9.053717 -3.306921 -18.428503 94.386969 29.776395 49.414201 -110.890010 51.517844 -0.000000 0.000000 0.000000 0.000000 0.000000 0.000000 0.000000 0.000000 0.000000 0.000000 0.000000 0.000000 0.000000 
0.803081 15.324044 -2.266284 -2.921484 24.404525 -5.193282 15.358749 23.344913 -7.080641 -28.403373 -5.300171 -6.869515 -0.155540 13.723178 29.545344 -1.002061 4.577358 -11.812430 0.000000 0.000000 0.000000 -17.803865 -16.309432 -0.838922 12.675777 -7.753403 9.992283 34.955109 -21.968628 15.965369 4.408621 -6.914779 -23.368435 0.000000 0.000000 0.000000 -0.578818 0.871980 9.451889 0.182177 2.254307 -3.288717 -5.025538 0.707925 -9.049484 -2.557478 1.209958 1.189437 0.000000 0.000000 0.000000 0.000000 0.000000 0.000000 6.728192 -6.450243 7.878664 -47.186734 -29.270581 16.494433 123.124505 -50.757426 -0.000000 0.000000 0.000000 0.000000 0.000000 0.000000 0.000000 0.000000 0.000000 0.000000 0.000000 0.000000 0.000000 -9.078142 -3.298077 -18.462589 94.345982 29.813475 49.458205 -110.848940 51.475301 -0.000000 0.000000 0.000000 0.000000 0.000000 0.000000 0.000000 0.000000 0.000000 0.000000 0.000000 0.000000 0.000000 
0.779642 15.322374 -2.267476 -2.884253 24.399392 -5.185912 15.378819 23.343495 -7.047533 -28.399203 -5.415229 -6.933251 -0.162158 13.656403 29.614852 -0.997571 4.492516 -11.813526 0.000000 0.000000 0.000000 -17.792318 -16.358814 -0.844480 12.731988 -7.726030 9.948568 34.907215 -22.017969 16.029628 4.435577 -6.920782 -23.453407 0.000000 0.000000 0.000000 -0.574738 0.880884 9.444364 0.180318 2.263708 -3.290887 -5.057483 0.721183 -9.046891 -2.558148 1.208511 1.197463 0.000000 0.000000 0.000000 0.000000 0.000000 0.000000 6.729050 -6.470071 7.888979 -47.123617 -29.227537 16.494382 123.199974 -50.683079 -0.000000 0.000000 0.000000 0.000000 0.000000 0.000000 0.000000 0.000000 0.000000 0.000000 0.000000 0.000000 0.000000 -9.107674 -3.280914 -18.498406 94.299765 29.857511 49.501538 -110.802581 51.419390 -0.000000 0.000000 0.000000 0.000000 0.000000 0.000000 0.000000 0.000000 0.000000 0.000000 0.000000 0.000000 0.000000 
0.756592 15.321068 -2.268572 -2.836985 24.387981 -5.177636 15.403750 23.353226 -7.006740 -28.410088 -5.535984 -6.993639 -0.167521 13.584927 29.689695 -0.994234 4.404273 -11.812336 0.000000 0.000000 0.000000 -17.776855 -16.419916 -0.855165 12.792936 -7.682855 9.876320 34.803328 -22.089444 16.157335 4.463767 -6.920137 -23.555135 0.000000 0.000000 0.000000 -0.567555 0.889922 9.439828 0.178369 2.273420 -3.293618 -5.097466 0.734579 -9.044299 -2.559352 1.207087 1.208632 0.000000 0.000000 0.000000 0.000000 0.000000 0.000000 6.728075 -6.498850 7.887387 -47.048436 -29.201583 16.493203 123.242339 -50.604962 -0.000000 0.000000 0.000000 0.000000 0.000000 0.000000 0.000000 0.000000 0.000000 0.000000 0.000000 0.000000 0.000000 -9.142634 -3.254922 -18.536050 94.247925 29.908932 49.544222 -110.750562 51.349184 -0.000000 0.000000 0.000000 0.000000 0.000000 0.000000 0.000000 0.000000 0.000000 0.000000 0.000000 0.000000 0.000000 
0.733542 15.319762 -2.269667 -2.789706 24.376425 -5.169104 15.428262 23.362761 -6.965851 -28.420125 -5.656630 -7.054581 -0.173289 13.513716 29.764241 -0.990819 4.316238 -11.810850 0.000000 0.000000 0.000000 -17.760871 -16.481032 -0.865552 12.853679 -7.639131 9.803502 34.699174 -22.160620 16.285042 4.492014 -6.919819 -23.656241 0.000000 0.000000 0.000000 -0.560414 0.899029 9.435061 0.176420 2.283181 -3.296369 -5.137384 0.748007 -9.041662 -2.560548 1.205639 1.219760 0.000000 0.000000 0.000000 0.000000 0.000000 0.000000 6.727070 -6.527609 7.885698 -46.973278 -29.175605 16.491846 123.284344 -50.527040 -0.000000 0.000000 0.000000 0.000000 0.000000 0.000000 0.000000 0.000000 0.000000 0.000000 0.000000 0.000000 0.000000 -9.177496 -3.228861 -18.573595 94.195738 29.960482 49.587061 -110.698375 51.278699 -0.000000 0.000000 0.000000 0.000000 0.000000 0.000000 0.000000 0.000000 0.000000 0.000000 0.000000 0.000000 0.000000 
0.710493 15.318455 -2.270763 -2.742414 24.364727 -5.160316 15.452351 23.372098 -6.924870 -28.429308 -5.777159 -7.116076 -0.179460 13.442774 29.838489 -0.987328 4.228416 -11.809068 0.000000 0.000000 0.000000 -17.744366 -16.542156 -0.875640 12.914214 -7.594861 9.730115 34.594761 -22.231496 16.412745 4.520320 -6.919828 -23.756724 0.000000 0.000000 0.000000 -0.553316 0.908203 9.430064 0.174469 2.292992 -3.299141 -5.177237 0.761468 -9.038978 -2.561734 1.204167 1.230844 0.000000 0.000000 0.000000 0.000000 0.000000 0.000000 6.726036 -6.556350 7.883913 -46.898144 -29.149602 16.490314 123.325990 -50.449312 -0.000000 0.000000 0.000000 0.000000 0.000000 0.000000 0.000000 0.000000 0.000000 0.000000 0.000000 0.000000 0.000000 -9.212260 -3.202732 -18.611039 94.143204 30.012164 49.630055 -110.646023 51.207934 -0.000000 0.000000 0.000000 0.000000 0.000000 0.000000 0.000000 0.000000 0.000000 0.000000 0.000000 0.000000 0.000000 
0.687891 15.317522 -2.271754 -2.688332 24.351991 -5.148821 15.479787 23.390583 -6.877619 -28.449565 -5.906234 -7.179852 -0.185981 13.371089 29.920765 -0.985083 4.141799 -11.804164 0.000000 0.000000 0.000000 -17.724759 -16.604637 -0.888116 12.971778 -7.547297 9.647211 34.470330 -22.305405 16.559642 4.547453 -6.912296 -23.865293 0.000000 0.000000 0.000000 -0.543108 0.916404 9.426798 0.172467 2.302230 -3.302042 -5.223681 0.774749 -9.036485 -2.563793 1.202264 1.243399 0.000000 0.000000 0.000000 0.000000 0.000000 0.000000 6.723237 -6.589508 7.879027 -46.820653 -29.128457 16.487033 123.360334 -50.365358 -0.000000 0.000000 0.000000 0.000000 0.000000 0.000000 0.000000 0.000000 0.000000 0.000000 0.000000 0.000000 0.000000 -9.250707 -3.172647 -18.651785 94.088989 30.064899 49.672790 -110.593496 51.126498 -0.000000 0.000000 0.000000 0.000000 0.000000 0.000000 0.000000 0.000000 0.000000 0.000000 0.000000 0.000000 0.000000 
0.665826 15.317033 -2.272620 -2.626119 24.337996 -5.134088 15.511263 23.420032 -6.822894 -28.483132 -6.045546 -7.246271 -0.192968 13.298475 30.012671 -0.984318 4.056558 -11.795596 0.000000 0.000000 0.000000 -17.701457 -16.668776 -0.903403 13.025831 -7.495683 9.552843 34.321920 -22.382907 16.729573 4.573162 -6.895793 -23.983539 0.000000 0.000000 0.000000 -0.529197 0.923449 9.425599 0.170407 2.310789 -3.305101 -5.278012 0.787828 -9.034213 -2.566888 1.199844 1.257729 0.000000 0.000000 0.000000 0.000000 0.000000 0.000000 6.718360 -6.627954 7.870421 -46.740349 -29.113129 16.481662 123.385941 -50.273997 -0.000000 0.000000 0.000000 0.000000 0.000000 0.000000 0.000000 0.000000 0.000000 0.000000 0.000000 0.000000 0.000000 -9.293594 -3.137836 -18.696512 94.032787 30.118873 49.715211 -110.540745 51.032293 -0.000000 0.000000 0.000000 0.000000 0.000000 0.000000 0.000000 0.000000 0.000000 0.000000 0.000000 0.000000 0.000000 
0.643762 15.316545 -2.273485 -2.563873 24.323794 -5.119031 15.542255 23.449261 -6.768091 -28.515708 -6.184719 -7.313277 -0.200528 13.226153 30.104232 -0.983445 3.971507 -11.786752 0.000000 0.000000 0.000000 -17.677509 -16.732963 -0.918249 13.079658 -7.443229 9.457639 34.173135 -22.459979 16.899606 4.598917 -6.879772 -24.101007 0.000000 0.000000 0.000000 -0.515360 0.930586 9.424107 0.168347 2.319418 -3.308189 -5.332269 0.800964 -9.031871 -2.569963 1.197390 1.272023 0.000000 0.000000 0.000000 0.000000 0.000000 0.000000 6.713486 -6.666385 7.861677 -46.660079 -29.097785 16.476072 123.411093 -50.182922 -0.000000 0.000000 0.000000 0.000000 0.000000 0.000000 0.000000 0.000000 0.000000 0.000000 0.000000 0.000000 0.000000 -9.336406 -3.102944 -18.741152 93.976174 30.172989 49.757822 -110.487767 50.937714 -0.000000 0.000000 0.000000 0.000000 0.000000 0.000000 0.000000 0.000000 0.000000 0.000000 0.000000 0.000000 0.000000 
0.621697 15.316056 -2.274351 -2.501595 24.309388 -5.103651 15.572762 23.478267 -6.713216 -28.547290 -6.323747 -7.380869 -0.208659 13.154126 30.195443 -0.982463 3.886647 -11.777633 0.000000 0.000000 0.000000 -17.652910 -16.797191 -0.932653 13.133249 -7.389940 9.361603 34.023985 -22.536621 17.069734 4.624719 -6.864236 -24.217697 0.000000 0.000000 0.000000 -0.501599 0.937815 9.422321 0.166288 2.328115 -3.311306 -5.386452 0.814156 -9.029459 -2.573019 1.194904 1.286280 0.000000 0.000000 0.000000 0.000000 0.000000 0.000000 6.708615 -6.704802 7.852797 -46.579841 -29.082424 16.470266 123.435797 -50.092129 -0.000000 0.000000 0.000000 0.000000 0.000000 0.000000 0.000000 0.000000 0.000000 0.000000 0.000000 0.000000 0.000000 -9.379143 -3.067971 -18.785703 93.919151 30.227248 49.800625 -110.434567 50.842760 -0.000000 0.000000 0.000000 0.000000 0.000000 0.000000 0.000000 0.000000 0.000000 0.000000 0.000000 0.000000 0.000000 
